<?xml version="1.0" standalone="no"?>
<!DOCTYPE svg PUBLIC "-//W3C//DTD SVG 20010904//EN"
 "http://www.w3.org/TR/2001/REC-SVG-20010904/DTD/svg10.dtd">
<svg version="1.0" xmlns="http://www.w3.org/2000/svg"
 width="357.000000pt" height="381.000000pt" viewBox="0 0 357.000000 381.000000"
 preserveAspectRatio="xMidYMid meet">

<g transform="translate(0.000000,381.000000) scale(0.100000,-0.100000)"
fill="#000000" stroke="none">
<path d="M1723 3722 c-13 -2 -23 -7 -23 -11 0 -5 -15 -11 -32 -15 -18 -3 -62
-22 -98 -40 -36 -19 -106 -51 -155 -71 -50 -20 -94 -41 -99 -46 -6 -5 -25 -9
-44 -9 -30 0 -33 -2 -22 -15 7 -9 8 -15 2 -15 -19 0 -142 -108 -142 -125 0 -6
-20 -32 -45 -56 -25 -24 -45 -49 -45 -56 0 -6 -18 -34 -39 -61 -22 -27 -38
-52 -35 -55 2 -2 -2 -28 -10 -58 -18 -70 -10 -323 10 -340 8 -6 14 -22 14 -35
0 -12 5 -26 11 -29 6 -5 8 -27 3 -61 -6 -50 -5 -54 14 -54 23 0 36 -47 26 -97
-3 -17 -2 -33 4 -37 6 -3 13 18 17 54 5 40 11 60 20 60 17 0 45 -38 45 -61 0
-9 7 -19 15 -23 11 -4 15 -22 15 -72 0 -57 -2 -65 -16 -60 -9 4 -23 1 -30 -5
-8 -6 -20 -9 -28 -6 -10 4 -12 0 -8 -15 4 -17 2 -20 -11 -15 -27 10 -22 -64 8
-121 18 -35 26 -70 31 -138 l7 -92 -28 -13 c-32 -16 -72 -103 -105 -228 -10
-42 -26 -79 -35 -84 -38 -21 -89 -74 -115 -121 -31 -55 -107 -166 -206 -300
-101 -135 -203 -295 -254 -396 -80 -159 -207 -443 -218 -485 -12 -43 -22 -140
-26 -247 l-2 -68 1157 0 c1099 0 1158 1 1152 18 -4 9 -12 21 -20 25 -7 4 -13
23 -13 41 0 54 -11 93 -32 115 -10 12 -15 21 -11 21 5 0 9 9 9 19 0 11 -5 17
-10 14 -5 -4 -7 1 -3 10 3 10 2 17 -4 17 -6 0 -7 5 -4 10 3 6 1 10 -6 10 -8 0
-8 4 1 15 10 12 10 15 -3 15 -9 0 -17 11 -20 28 -4 25 -4 25 -6 -5 0 -18 7
-55 17 -81 10 -27 17 -59 15 -71 -2 -12 2 -32 8 -44 l11 -22 -19 21 c-32 32
-75 164 -88 269 -1 11 -5 27 -8 35 -3 8 -8 31 -10 51 -2 19 -10 45 -16 57 -14
27 -10 27 31 2 18 -11 30 -20 25 -20 -4 0 -1 -10 7 -22 7 -13 19 -41 26 -63 6
-22 20 -59 31 -82 10 -24 19 -45 19 -47 0 -2 7 -21 17 -42 9 -22 18 -51 19
-66 2 -15 13 -47 23 -70 11 -24 22 -57 26 -75 3 -17 13 -37 21 -44 8 -6 14
-18 14 -25 0 -12 44 -14 250 -14 146 0 250 4 250 9 0 5 -24 30 -52 54 -49 42
-54 51 -70 119 -10 40 -23 132 -28 203 -6 72 -15 146 -20 165 -5 19 -23 105
-41 190 -17 85 -41 182 -54 215 -29 78 -107 232 -156 311 -21 33 -39 64 -39
67 0 3 -28 32 -61 64 -72 68 -69 64 -114 126 -19 26 -35 54 -35 63 0 8 27 63
60 122 33 59 65 123 71 142 6 19 20 54 30 78 25 56 78 274 81 332 1 25 -2 76
-7 114 -8 69 3 155 42 326 10 43 14 110 13 197 -1 113 1 134 14 139 19 7 19
37 3 114 -12 54 -41 105 -119 204 -28 35 -37 54 -32 70 6 19 5 20 -7 3 -13
-16 -16 -15 -48 12 -31 27 -33 32 -28 73 5 36 4 39 -5 21 -16 -32 -23 -29 -42
20 -10 23 -21 49 -25 57 -13 28 -107 66 -166 68 -30 0 -106 10 -168 22 -119
21 -187 28 -224 22z m397 -499 c36 -8 74 -19 86 -25 11 -5 26 -8 34 -6 7 2 19
-8 26 -22 30 -58 44 -94 44 -116 0 -13 5 -26 10 -29 6 -3 10 -18 10 -33 0 -19
-3 -23 -9 -14 -7 11 -9 11 -14 -2 -7 -18 1 -46 14 -46 4 0 6 -7 3 -15 -4 -11
-2 -13 9 -10 9 4 16 -1 20 -14 3 -14 0 -21 -9 -22 -8 -1 -17 -2 -21 -3 -5 -1
-41 -8 -81 -15 -100 -18 -117 -51 -51 -100 25 -19 36 -21 77 -14 64 12 103 3
113 -25 7 -19 4 -25 -16 -34 -14 -6 -25 -17 -25 -24 0 -8 -21 -15 -61 -20 -71
-8 -111 -33 -89 -56 21 -19 79 -42 115 -44 16 -1 34 -2 39 -3 4 -1 6 -10 3
-21 -3 -11 0 -20 6 -21 7 0 33 -2 58 -4 61 -3 81 -15 48 -28 -21 -9 -22 -11
-5 -14 14 -4 17 -11 12 -33 -3 -19 -1 -30 9 -34 11 -4 13 -15 9 -43 -3 -21
-13 -99 -23 -173 -16 -121 -33 -185 -52 -200 -4 -3 -17 -27 -30 -55 -24 -51
-52 -85 -69 -85 -5 0 -10 -7 -10 -15 0 -8 -7 -15 -15 -15 -8 0 -15 5 -15 10 0
6 -9 23 -20 38 -19 25 -19 62 -1 62 3 0 7 27 8 60 1 49 -2 60 -16 60 -9 0 -27
9 -41 20 -34 26 -40 25 -40 -9 0 -25 -4 -30 -37 -35 -21 -4 -55 -7 -75 -6 -20
0 -59 -9 -88 -20 -56 -22 -90 -26 -90 -9 0 15 -58 -28 -71 -53 -14 -27 -9 -30
29 -16 27 11 36 9 70 -10 22 -12 53 -22 69 -22 27 0 30 3 25 25 -4 23 -1 25
29 25 19 0 43 3 54 5 11 3 26 1 34 -4 21 -13 -5 -44 -30 -36 -12 4 -19 -1 -24
-14 -5 -18 -60 -51 -84 -51 -6 0 -11 -4 -11 -9 0 -5 32 -17 70 -26 54 -13 74
-15 84 -6 10 8 16 9 21 1 3 -5 17 -10 30 -10 15 0 26 -7 30 -20 3 -11 13 -20
21 -20 24 0 13 -43 -14 -56 -13 -7 -32 -26 -43 -43 -10 -17 -31 -33 -46 -37
-15 -4 -37 -13 -48 -20 -12 -8 -55 -14 -105 -15 -46 -1 -92 -6 -101 -12 -14
-8 -26 -5 -57 16 -26 17 -66 30 -109 37 -80 13 -166 53 -190 89 -9 14 -31 41
-50 60 -18 19 -33 42 -33 53 0 10 -3 18 -7 18 -15 0 -83 72 -77 81 3 6 0 17
-7 25 -44 54 -70 144 -53 188 6 15 8 15 20 -1 12 -17 13 -16 14 9 0 14 5 28
11 30 8 3 6 20 -5 56 -10 35 -13 73 -10 115 7 81 -6 141 -31 146 -30 5 -35 20
-30 81 3 30 7 89 10 130 7 86 26 126 104 209 28 29 48 57 46 62 -3 4 1 24 9
44 13 30 13 35 0 35 -7 0 -14 4 -14 10 0 5 21 9 48 10 112 0 195 9 239 26 54
21 149 85 205 138 35 33 42 36 100 35 35 0 92 -7 128 -16z m457 -165 c-3 -8
-6 -5 -6 6 -1 11 2 17 5 13 3 -3 4 -12 1 -19z m-1509 -466 c2 -7 -2 -10 -12
-6 -9 3 -16 11 -16 16 0 13 23 5 28 -10z m1246 -27 c-4 -8 -13 -15 -21 -15
-13 0 -13 3 -3 15 7 8 16 15 21 15 5 0 6 -7 3 -15z m155 -9 c9 -11 9 -16 0
-21 -10 -7 -28 10 -29 28 0 12 17 8 29 -7z m-1331 -282 c3 -20 -13 -33 -70
-54 -26 -9 -28 -8 -28 16 0 14 7 27 18 31 9 4 21 13 25 20 13 21 51 12 55 -13z
m-58 -73 c0 -5 9 -7 21 -4 23 6 40 -12 32 -34 -8 -19 -36 -16 -56 7 -19 23
-22 40 -7 40 6 0 10 -4 10 -9z m1010 -355 c0 -3 -4 -8 -10 -11 -5 -3 -10 -1
-10 4 0 6 5 11 10 11 6 0 10 -2 10 -4z m-720 -280 c0 -8 3 -23 6 -33 3 -10 -2
-7 -10 7 -18 30 -20 40 -6 40 6 0 10 -6 10 -14z m44 -61 c-4 -8 -10 -12 -15
-9 -11 6 -2 24 11 24 5 0 7 -7 4 -15z m216 -66 c0 -6 -4 -7 -10 -4 -5 3 -10
11 -10 16 0 6 5 7 10 4 6 -3 10 -11 10 -16z m79 -55 c1 -1 1 -7 0 -13 -2 -5
-15 -1 -29 10 l-25 20 25 -7 c14 -3 27 -8 29 -10z m53 -12 c-24 -8 -11 -17 25
-18 20 0 39 -6 41 -12 2 -7 8 -12 13 -12 6 0 22 -11 37 -25 15 -14 44 -33 65
-42 20 -9 37 -23 37 -30 0 -7 5 -13 10 -13 6 0 21 -9 33 -20 12 -11 27 -18 34
-16 9 4 10 -1 1 -22 -20 -47 -78 -93 -78 -62 0 6 6 10 13 10 8 0 7 3 -3 9 -8
6 -18 7 -22 5 -4 -3 -8 3 -8 13 0 12 -3 14 -8 6 -5 -8 -13 -9 -22 -3 -13 8
-13 10 -1 10 10 0 8 6 -7 21 -12 11 -27 17 -34 13 -7 -5 -9 2 -6 20 5 23 3 27
-13 23 -12 -3 -19 0 -19 9 0 8 -5 14 -10 14 -6 0 -22 11 -35 24 -17 17 -20 27
-13 34 8 8 6 13 -8 18 -10 4 -29 14 -42 22 -21 14 -21 15 -5 27 10 7 22 11 27
7 6 -3 5 -7 -2 -10z m614 -31 c-4 -6 -14 -11 -22 -11 -12 0 -12 3 -2 20 7 11
16 16 21 11 5 -5 6 -14 3 -20z m58 -42 c-3 -5 -10 -7 -15 -3 -5 3 -7 10 -3 15
3 5 10 7 15 3 5 -3 7 -10 3 -15z m-59 -49 c3 -5 3 -15 -1 -21 -6 -11 -23 6
-24 24 0 10 18 9 25 -3z m45 -85 c0 -8 -4 -15 -10 -15 -5 0 -7 7 -4 15 4 8 8
15 10 15 2 0 4 -7 4 -15z m10 -45 c-6 -12 -14 -19 -18 -16 -3 4 0 12 6 18 7 7
13 21 13 33 1 16 2 16 6 3 2 -9 -1 -27 -7 -38z m-122 -175 c-7 -7 -12 -6 -15
3 -3 6 -11 12 -19 12 -8 0 -14 5 -14 10 0 6 4 10 9 10 5 0 13 15 17 33 l7 32
13 -45 c10 -32 10 -48 2 -55z m-21 -11 c3 -8 -1 -22 -8 -29 -12 -12 -17 -12
-33 0 -16 12 -17 17 -6 30 16 20 39 19 47 -1z m50 -34 c-11 -16 -17 -18 -22
-9 -5 7 -1 18 10 25 25 18 31 10 12 -16z m-40 -32 c-3 -8 -6 -5 -6 6 -1 11 2
17 5 13 3 -3 4 -12 1 -19z m-317 -6 c0 -5 14 -24 30 -42 17 -18 30 -40 30 -47
0 -7 4 -13 10 -13 5 0 12 -11 16 -24 3 -14 12 -27 18 -29 7 -3 16 -19 19 -35
3 -16 12 -36 20 -44 8 -8 18 -34 22 -58 4 -25 14 -54 22 -66 12 -19 12 -22 -1
-27 -10 -4 -13 -1 -9 10 3 8 2 18 -3 22 -5 3 -16 22 -25 41 -44 100 -114 230
-125 234 -6 2 -15 18 -19 35 -4 17 -11 31 -16 31 -5 0 -9 5 -9 10 0 6 5 10 10
10 6 0 10 -4 10 -8z m310 -24 c0 -5 -4 -8 -10 -8 -5 0 -10 10 -10 23 0 18 2
19 10 7 5 -8 10 -18 10 -22z m-123 1 c2 -16 -1 -19 -9 -11 -5 5 -7 15 -4 21
10 15 12 14 13 -10z m-32 -29 c3 -5 2 -10 -4 -10 -5 0 -13 5 -16 10 -3 6 -2
10 4 10 5 0 13 -4 16 -10z m64 -81 c3 -11 -1 -10 -19 2 -13 9 -26 22 -29 30
-3 11 1 10 19 -2 13 -9 26 -22 29 -30z m21 -379 c0 -5 -2 -10 -4 -10 -3 0 -8
5 -11 10 -3 6 -1 10 4 10 6 0 11 -4 11 -10z m243 -10 c3 -11 1 -23 -4 -26 -5
-3 -9 6 -9 20 0 31 6 34 13 6z"/>
<path d="M1554 2842 c-42 -31 -69 -60 -63 -67 2 -2 37 3 77 10 54 11 80 11
100 3 15 -6 64 -11 109 -12 72 -1 85 2 104 20 l21 22 -21 11 c-12 7 -27 11
-34 10 -6 -1 -19 1 -27 4 -42 17 -102 27 -161 27 -57 0 -72 -4 -105 -28z"/>
<path d="M2071 2656 c-9 -10 -8 -15 1 -18 19 -7 38 2 38 18 0 18 -24 18 -39 0z"/>
<path d="M1540 2642 c-8 -1 -23 -16 -32 -32 -21 -37 -12 -44 62 -45 30 0 60
-3 65 -6 6 -4 22 -9 37 -13 21 -5 30 -1 42 16 9 12 16 31 16 41 0 34 35 15 38
-20 3 -30 6 -32 33 -29 16 1 31 5 34 8 12 11 -19 57 -44 67 -24 9 -218 20
-251 13z"/>
<path d="M2076 2547 c3 -10 9 -15 12 -12 3 3 0 11 -7 18 -10 9 -11 8 -5 -6z"/>
<path d="M2090 2477 c0 -28 49 -167 64 -183 14 -14 15 -12 9 18 -3 18 -17 57
-30 87 -12 29 -23 59 -23 67 0 7 -4 16 -10 19 -5 3 -10 0 -10 -8z"/>
<path d="M1862 2285 c-19 -41 -15 -102 8 -125 27 -27 63 -26 75 3 11 24 62 33
57 9 -1 -7 7 -25 18 -39 11 -15 20 -41 20 -62 1 -30 2 -33 11 -18 12 21 3 88
-13 98 -5 4 5 9 22 11 27 4 38 -1 62 -26 l30 -31 34 37 c20 23 34 48 34 63 0
15 -4 24 -10 20 -5 -3 -10 -12 -10 -19 0 -16 -47 -42 -57 -31 -5 4 -3 10 3 12
6 2 20 10 30 18 19 13 19 14 -1 29 -18 13 -22 13 -43 -7 -21 -19 -34 -22 -105
-20 -73 2 -84 0 -98 -18 -37 -50 -88 26 -60 88 7 14 10 27 8 29 -2 2 -9 -7
-15 -21z"/>
<path d="M2270 2011 c0 -22 16 -36 24 -22 8 12 -3 41 -15 41 -5 0 -9 -9 -9
-19z"/>
<path d="M1805 1330 c3 -5 8 -10 11 -10 2 0 4 5 4 10 0 6 -5 10 -11 10 -5 0
-7 -4 -4 -10z"/>
<path d="M2260 3672 c0 -10 33 -42 43 -42 3 0 4 6 1 13 -6 15 -44 40 -44 29z"/>
<path d="M2317 3598 c9 -42 13 -49 23 -43 6 4 4 17 -5 36 -18 35 -25 37 -18 7z"/>
<path d="M1020 2394 c0 -16 5 -36 11 -44 7 -11 8 -4 3 25 -8 50 -14 58 -14 19z"/>
</g>
</svg>
